<svg width="109" height="135" viewBox="0 0 109 135" fill="none" xmlns="http://www.w3.org/2000/svg">
<rect y="108" width="109" height="27" fill="#E65A6D" fill-opacity="0.53"/>
<rect y="108" width="3" height="27" fill="#E65A6D"/>
<rect width="109" height="27" fill="#FFE17F" fill-opacity="0.44"/>
<rect width="3" height="27" fill="#FFE17F"/>
<rect x="1" y="37.2333" width="108" height="26.6447" fill="#D7E9F1" fill-opacity="0.65"/>
<rect y="37" width="3" height="27" fill="#2F30D4"/>
<rect y="75" width="109" height="26.877" fill="#5EC3AE" fill-opacity="0.44"/>
<rect y="75.123" width="3" height="26.877" fill="#09B89D"/>
<path d="M13.48 16.056C13.0907 16.056 12.7387 15.9893 12.424 15.856C12.1147 15.7227 11.8693 15.5307 11.688 15.28C11.5067 15.0293 11.4133 14.7333 11.408 14.392H12.608C12.624 14.6213 12.704 14.8027 12.848 14.936C12.9973 15.0693 13.2 15.136 13.456 15.136C13.7173 15.136 13.9227 15.0747 14.072 14.952C14.2213 14.824 14.296 14.6587 14.296 14.456C14.296 14.2907 14.2453 14.1547 14.144 14.048C14.0427 13.9413 13.9147 13.8587 13.76 13.8C13.6107 13.736 13.4027 13.6667 13.136 13.592C12.7733 13.4853 12.4773 13.3813 12.248 13.28C12.024 13.1733 11.8293 13.016 11.664 12.808C11.504 12.5947 11.424 12.312 11.424 11.96C11.424 11.6293 11.5067 11.3413 11.672 11.096C11.8373 10.8507 12.0693 10.664 12.368 10.536C12.6667 10.4027 13.008 10.336 13.392 10.336C13.968 10.336 14.4347 10.4773 14.792 10.76C15.1547 11.0373 15.3547 11.4267 15.392 11.928H14.16C14.1493 11.736 14.0667 11.5787 13.912 11.456C13.7627 11.328 13.5627 11.264 13.312 11.264C13.0933 11.264 12.9173 11.32 12.784 11.432C12.656 11.544 12.592 11.7067 12.592 11.92C12.592 12.0693 12.64 12.1947 12.736 12.296C12.8373 12.392 12.96 12.472 13.104 12.536C13.2533 12.5947 13.4613 12.664 13.728 12.744C14.0907 12.8507 14.3867 12.9573 14.616 13.064C14.8453 13.1707 15.0427 13.3307 15.208 13.544C15.3733 13.7573 15.456 14.0373 15.456 14.384C15.456 14.6827 15.3787 14.96 15.224 15.216C15.0693 15.472 14.8427 15.6773 14.544 15.832C14.2453 15.9813 13.8907 16.056 13.48 16.056ZM18.395 16.072C17.9683 16.072 17.5843 15.9787 17.243 15.792C16.9017 15.6 16.6323 15.3307 16.435 14.984C16.243 14.6373 16.147 14.2373 16.147 13.784C16.147 13.3307 16.2457 12.9307 16.443 12.584C16.6457 12.2373 16.9203 11.9707 17.267 11.784C17.6137 11.592 18.0003 11.496 18.427 11.496C18.8537 11.496 19.2403 11.592 19.587 11.784C19.9337 11.9707 20.2057 12.2373 20.403 12.584C20.6057 12.9307 20.707 13.3307 20.707 13.784C20.707 14.2373 20.603 14.6373 20.395 14.984C20.1923 15.3307 19.915 15.6 19.563 15.792C19.2163 15.9787 18.827 16.072 18.395 16.072ZM18.395 15.096C18.5977 15.096 18.787 15.048 18.963 14.952C19.1443 14.8507 19.2883 14.7013 19.395 14.504C19.5017 14.3067 19.555 14.0667 19.555 13.784C19.555 13.3627 19.443 13.04 19.219 12.816C19.0003 12.5867 18.731 12.472 18.411 12.472C18.091 12.472 17.8217 12.5867 17.603 12.816C17.3897 13.04 17.283 13.3627 17.283 13.784C17.283 14.2053 17.387 14.5307 17.595 14.76C17.8083 14.984 18.075 15.096 18.395 15.096ZM21.2406 13.784C21.2406 13.3253 21.3339 12.9253 21.5206 12.584C21.7072 12.2373 21.9659 11.9707 22.2966 11.784C22.6272 11.592 23.0059 11.496 23.4326 11.496C23.9819 11.496 24.4352 11.6347 24.7926 11.912C25.1552 12.184 25.3979 12.568 25.5206 13.064H24.3126C24.2486 12.872 24.1392 12.7227 23.9846 12.616C23.8352 12.504 23.6486 12.448 23.4246 12.448C23.1046 12.448 22.8512 12.5653 22.6646 12.8C22.4779 13.0293 22.3846 13.3573 22.3846 13.784C22.3846 14.2053 22.4779 14.5333 22.6646 14.768C22.8512 14.9973 23.1046 15.112 23.4246 15.112C23.8779 15.112 24.1739 14.9093 24.3126 14.504H25.5206C25.3979 14.984 25.1552 15.3653 24.7926 15.648C24.4299 15.9307 23.9766 16.072 23.4326 16.072C23.0059 16.072 22.6272 15.9787 22.2966 15.792C21.9659 15.6 21.7072 15.3333 21.5206 14.992C21.3339 14.6453 21.2406 14.2427 21.2406 13.784ZM26.9091 11.04C26.7117 11.04 26.5464 10.9787 26.4131 10.856C26.2851 10.728 26.2211 10.5707 26.2211 10.384C26.2211 10.1973 26.2851 10.0427 26.4131 9.92C26.5464 9.792 26.7117 9.728 26.9091 9.728C27.1064 9.728 27.2691 9.792 27.3971 9.92C27.5304 10.0427 27.5971 10.1973 27.5971 10.384C27.5971 10.5707 27.5304 10.728 27.3971 10.856C27.2691 10.9787 27.1064 11.04 26.9091 11.04ZM27.4611 11.568V16H26.3411V11.568H27.4611ZM28.2796 13.768C28.2796 13.32 28.3676 12.9227 28.5436 12.576C28.725 12.2293 28.9676 11.9627 29.2716 11.776C29.581 11.5893 29.925 11.496 30.3036 11.496C30.6343 11.496 30.9223 11.5627 31.1676 11.696C31.4183 11.8293 31.6183 11.9973 31.7676 12.2V11.568H32.8956V16H31.7676V15.352C31.6236 15.56 31.4236 15.7333 31.1676 15.872C30.917 16.0053 30.6263 16.072 30.2956 16.072C29.9223 16.072 29.581 15.976 29.2716 15.784C28.9676 15.592 28.725 15.3227 28.5436 14.976C28.3676 14.624 28.2796 14.2213 28.2796 13.768ZM31.7676 13.784C31.7676 13.512 31.7143 13.28 31.6076 13.088C31.501 12.8907 31.357 12.7413 31.1756 12.64C30.9943 12.5333 30.7996 12.48 30.5916 12.48C30.3836 12.48 30.1916 12.5307 30.0156 12.632C29.8396 12.7333 29.6956 12.8827 29.5836 13.08C29.477 13.272 29.4236 13.5013 29.4236 13.768C29.4236 14.0347 29.477 14.2693 29.5836 14.472C29.6956 14.6693 29.8396 14.8213 30.0156 14.928C30.197 15.0347 30.389 15.088 30.5916 15.088C30.7996 15.088 30.9943 15.0373 31.1756 14.936C31.357 14.8293 31.501 14.68 31.6076 14.488C31.7143 14.2907 31.7676 14.056 31.7676 13.784ZM35.1095 10.08V16H33.9895V10.08H35.1095ZM40.0503 16.056C39.661 16.056 39.309 15.9893 38.9943 15.856C38.685 15.7227 38.4396 15.5307 38.2583 15.28C38.077 15.0293 37.9836 14.7333 37.9783 14.392H39.1783C39.1943 14.6213 39.2743 14.8027 39.4183 14.936C39.5676 15.0693 39.7703 15.136 40.0263 15.136C40.2876 15.136 40.493 15.0747 40.6423 14.952C40.7916 14.824 40.8663 14.6587 40.8663 14.456C40.8663 14.2907 40.8156 14.1547 40.7143 14.048C40.613 13.9413 40.485 13.8587 40.3303 13.8C40.181 13.736 39.973 13.6667 39.7063 13.592C39.3436 13.4853 39.0476 13.3813 38.8183 13.28C38.5943 13.1733 38.3996 13.016 38.2343 12.808C38.0743 12.5947 37.9943 12.312 37.9943 11.96C37.9943 11.6293 38.077 11.3413 38.2423 11.096C38.4076 10.8507 38.6396 10.664 38.9383 10.536C39.237 10.4027 39.5783 10.336 39.9623 10.336C40.5383 10.336 41.005 10.4773 41.3623 10.76C41.725 11.0373 41.925 11.4267 41.9623 11.928H40.7303C40.7196 11.736 40.637 11.5787 40.4823 11.456C40.333 11.328 40.133 11.264 39.8823 11.264C39.6636 11.264 39.4876 11.32 39.3543 11.432C39.2263 11.544 39.1623 11.7067 39.1623 11.92C39.1623 12.0693 39.2103 12.1947 39.3063 12.296C39.4076 12.392 39.5303 12.472 39.6743 12.536C39.8236 12.5947 40.0316 12.664 40.2983 12.744C40.661 12.8507 40.957 12.9573 41.1863 13.064C41.4156 13.1707 41.613 13.3307 41.7783 13.544C41.9436 13.7573 42.0263 14.0373 42.0263 14.384C42.0263 14.6827 41.949 14.96 41.7943 15.216C41.6396 15.472 41.413 15.6773 41.1143 15.832C40.8156 15.9813 40.461 16.056 40.0503 16.056ZM44.1173 12.208C44.2613 12.0053 44.4586 11.8373 44.7093 11.704C44.9653 11.5653 45.256 11.496 45.5813 11.496C45.96 11.496 46.3013 11.5893 46.6053 11.776C46.9146 11.9627 47.1573 12.2293 47.3333 12.576C47.5146 12.9173 47.6053 13.3147 47.6053 13.768C47.6053 14.2213 47.5146 14.624 47.3333 14.976C47.1573 15.3227 46.9146 15.592 46.6053 15.784C46.3013 15.976 45.96 16.072 45.5813 16.072C45.256 16.072 44.968 16.0053 44.7173 15.872C44.472 15.7387 44.272 15.5707 44.1173 15.368V18.112H42.9973V11.568H44.1173V12.208ZM46.4613 13.768C46.4613 13.5013 46.4053 13.272 46.2933 13.08C46.1866 12.8827 46.0426 12.7333 45.8613 12.632C45.6853 12.5307 45.4933 12.48 45.2853 12.48C45.0826 12.48 44.8906 12.5333 44.7093 12.64C44.5333 12.7413 44.3893 12.8907 44.2773 13.088C44.1706 13.2853 44.1173 13.5173 44.1173 13.784C44.1173 14.0507 44.1706 14.2827 44.2773 14.48C44.3893 14.6773 44.5333 14.8293 44.7093 14.936C44.8906 15.0373 45.0826 15.088 45.2853 15.088C45.4933 15.088 45.6853 15.0347 45.8613 14.928C46.0426 14.8213 46.1866 14.6693 46.2933 14.472C46.4053 14.2747 46.4613 14.04 46.4613 13.768ZM48.1312 13.768C48.1312 13.32 48.2192 12.9227 48.3952 12.576C48.5765 12.2293 48.8192 11.9627 49.1232 11.776C49.4325 11.5893 49.7765 11.496 50.1552 11.496C50.4859 11.496 50.7739 11.5627 51.0192 11.696C51.2699 11.8293 51.4699 11.9973 51.6192 12.2V11.568H52.7472V16H51.6192V15.352C51.4752 15.56 51.2752 15.7333 51.0192 15.872C50.7685 16.0053 50.4779 16.072 50.1472 16.072C49.7739 16.072 49.4325 15.976 49.1232 15.784C48.8192 15.592 48.5765 15.3227 48.3952 14.976C48.2192 14.624 48.1312 14.2213 48.1312 13.768ZM51.6192 13.784C51.6192 13.512 51.5659 13.28 51.4592 13.088C51.3525 12.8907 51.2085 12.7413 51.0272 12.64C50.8459 12.5333 50.6512 12.48 50.4432 12.48C50.2352 12.48 50.0432 12.5307 49.8672 12.632C49.6912 12.7333 49.5472 12.8827 49.4352 13.08C49.3285 13.272 49.2752 13.5013 49.2752 13.768C49.2752 14.0347 49.3285 14.2693 49.4352 14.472C49.5472 14.6693 49.6912 14.8213 49.8672 14.928C50.0485 15.0347 50.2405 15.088 50.4432 15.088C50.6512 15.088 50.8459 15.0373 51.0272 14.936C51.2085 14.8293 51.3525 14.68 51.4592 14.488C51.5659 14.2907 51.6192 14.056 51.6192 13.784ZM53.5531 13.784C53.5531 13.3253 53.6464 12.9253 53.8331 12.584C54.0197 12.2373 54.2784 11.9707 54.6091 11.784C54.9397 11.592 55.3184 11.496 55.7451 11.496C56.2944 11.496 56.7477 11.6347 57.1051 11.912C57.4677 12.184 57.7104 12.568 57.8331 13.064H56.6251C56.5611 12.872 56.4517 12.7227 56.2971 12.616C56.1477 12.504 55.9611 12.448 55.7371 12.448C55.4171 12.448 55.1637 12.5653 54.9771 12.8C54.7904 13.0293 54.6971 13.3573 54.6971 13.784C54.6971 14.2053 54.7904 14.5333 54.9771 14.768C55.1637 14.9973 55.4171 15.112 55.7371 15.112C56.1904 15.112 56.4864 14.9093 56.6251 14.504H57.8331C57.7104 14.984 57.4677 15.3653 57.1051 15.648C56.7424 15.9307 56.2891 16.072 55.7451 16.072C55.3184 16.072 54.9397 15.9787 54.6091 15.792C54.2784 15.6 54.0197 15.3333 53.8331 14.992C53.6464 14.6453 53.5531 14.2427 53.5531 13.784ZM62.7736 13.688C62.7736 13.848 62.7629 13.992 62.7416 14.12H59.5016C59.5282 14.44 59.6402 14.6907 59.8376 14.872C60.0349 15.0533 60.2776 15.144 60.5656 15.144C60.9816 15.144 61.2776 14.9653 61.4536 14.608H62.6616C62.5336 15.0347 62.2882 15.3867 61.9256 15.664C61.5629 15.936 61.1176 16.072 60.5896 16.072C60.1629 16.072 59.7789 15.9787 59.4376 15.792C59.1016 15.6 58.8376 15.3307 58.6456 14.984C58.4589 14.6373 58.3656 14.2373 58.3656 13.784C58.3656 13.3253 58.4589 12.9227 58.6456 12.576C58.8322 12.2293 59.0936 11.9627 59.4296 11.776C59.7656 11.5893 60.1522 11.496 60.5896 11.496C61.0109 11.496 61.3869 11.5867 61.7176 11.768C62.0536 11.9493 62.3122 12.208 62.4936 12.544C62.6802 12.8747 62.7736 13.256 62.7736 13.688ZM61.6136 13.368C61.6082 13.08 61.5042 12.8507 61.3016 12.68C61.0989 12.504 60.8509 12.416 60.5576 12.416C60.2802 12.416 60.0456 12.5013 59.8536 12.672C59.6669 12.8373 59.5522 13.0693 59.5096 13.368H61.6136Z" fill="#003754"/>
<path d="M15.352 86.416V87.32H13.864V92H12.744V87.32H11.256V86.416H15.352ZM20.2892 89.688C20.2892 89.848 20.2785 89.992 20.2572 90.12H17.0172C17.0439 90.44 17.1559 90.6907 17.3532 90.872C17.5505 91.0533 17.7932 91.144 18.0812 91.144C18.4972 91.144 18.7932 90.9653 18.9692 90.608H20.1772C20.0492 91.0347 19.8039 91.3867 19.4412 91.664C19.0785 91.936 18.6332 92.072 18.1052 92.072C17.6785 92.072 17.2945 91.9787 16.9532 91.792C16.6172 91.6 16.3532 91.3307 16.1612 90.984C15.9745 90.6373 15.8812 90.2373 15.8812 89.784C15.8812 89.3253 15.9745 88.9227 16.1612 88.576C16.3479 88.2293 16.6092 87.9627 16.9452 87.776C17.2812 87.5893 17.6679 87.496 18.1052 87.496C18.5265 87.496 18.9025 87.5867 19.2332 87.768C19.5692 87.9493 19.8279 88.208 20.0092 88.544C20.1959 88.8747 20.2892 89.256 20.2892 89.688ZM19.1292 89.368C19.1239 89.08 19.0199 88.8507 18.8172 88.68C18.6145 88.504 18.3665 88.416 18.0732 88.416C17.7959 88.416 17.5612 88.5013 17.3692 88.672C17.1825 88.8373 17.0679 89.0693 17.0252 89.368H19.1292ZM20.8187 89.768C20.8187 89.32 20.9067 88.9227 21.0827 88.576C21.264 88.2293 21.5067 87.9627 21.8107 87.776C22.12 87.5893 22.464 87.496 22.8427 87.496C23.1734 87.496 23.4614 87.5627 23.7067 87.696C23.9574 87.8293 24.1574 87.9973 24.3067 88.2V87.568H25.4347V92H24.3067V91.352C24.1627 91.56 23.9627 91.7333 23.7067 91.872C23.456 92.0053 23.1654 92.072 22.8347 92.072C22.4614 92.072 22.12 91.976 21.8107 91.784C21.5067 91.592 21.264 91.3227 21.0827 90.976C20.9067 90.624 20.8187 90.2213 20.8187 89.768ZM24.3067 89.784C24.3067 89.512 24.2534 89.28 24.1467 89.088C24.04 88.8907 23.896 88.7413 23.7147 88.64C23.5334 88.5333 23.3387 88.48 23.1307 88.48C22.9227 88.48 22.7307 88.5307 22.5547 88.632C22.3787 88.7333 22.2347 88.8827 22.1227 89.08C22.016 89.272 21.9627 89.5013 21.9627 89.768C21.9627 90.0347 22.016 90.2693 22.1227 90.472C22.2347 90.6693 22.3787 90.8213 22.5547 90.928C22.736 91.0347 22.928 91.088 23.1307 91.088C23.3387 91.088 23.5334 91.0373 23.7147 90.936C23.896 90.8293 24.04 90.68 24.1467 90.488C24.2534 90.2907 24.3067 90.056 24.3067 89.784ZM32.0326 87.504C32.5766 87.504 33.0139 87.672 33.3446 88.008C33.6806 88.3387 33.8486 88.8027 33.8486 89.4V92H32.7286V89.552C32.7286 89.2053 32.6406 88.9413 32.4646 88.76C32.2886 88.5733 32.0486 88.48 31.7446 88.48C31.4406 88.48 31.1979 88.5733 31.0166 88.76C30.8406 88.9413 30.7526 89.2053 30.7526 89.552V92H29.6326V89.552C29.6326 89.2053 29.5446 88.9413 29.3686 88.76C29.1926 88.5733 28.9526 88.48 28.6486 88.48C28.3392 88.48 28.0939 88.5733 27.9126 88.76C27.7366 88.9413 27.6486 89.2053 27.6486 89.552V92H26.5286V87.568H27.6486V88.104C27.7926 87.9173 27.9766 87.7707 28.2006 87.664C28.4299 87.5573 28.6806 87.504 28.9526 87.504C29.2992 87.504 29.6086 87.5787 29.8806 87.728C30.1526 87.872 30.3632 88.08 30.5126 88.352C30.6566 88.096 30.8646 87.8907 31.1366 87.736C31.4139 87.5813 31.7126 87.504 32.0326 87.504ZM38.7456 92.056C38.3563 92.056 38.0043 91.9893 37.6896 91.856C37.3803 91.7227 37.135 91.5307 36.9536 91.28C36.7723 91.0293 36.679 90.7333 36.6736 90.392H37.8736C37.8896 90.6213 37.9696 90.8027 38.1136 90.936C38.263 91.0693 38.4656 91.136 38.7216 91.136C38.983 91.136 39.1883 91.0747 39.3376 90.952C39.487 90.824 39.5616 90.6587 39.5616 90.456C39.5616 90.2907 39.511 90.1547 39.4096 90.048C39.3083 89.9413 39.1803 89.8587 39.0256 89.8C38.8763 89.736 38.6683 89.6667 38.4016 89.592C38.039 89.4853 37.743 89.3813 37.5136 89.28C37.2896 89.1733 37.095 89.016 36.9296 88.808C36.7696 88.5947 36.6896 88.312 36.6896 87.96C36.6896 87.6293 36.7723 87.3413 36.9376 87.096C37.103 86.8507 37.335 86.664 37.6336 86.536C37.9323 86.4027 38.2736 86.336 38.6576 86.336C39.2336 86.336 39.7003 86.4773 40.0576 86.76C40.4203 87.0373 40.6203 87.4267 40.6576 87.928H39.4256C39.415 87.736 39.3323 87.5787 39.1776 87.456C39.0283 87.328 38.8283 87.264 38.5776 87.264C38.359 87.264 38.183 87.32 38.0496 87.432C37.9216 87.544 37.8576 87.7067 37.8576 87.92C37.8576 88.0693 37.9056 88.1947 38.0016 88.296C38.103 88.392 38.2256 88.472 38.3696 88.536C38.519 88.5947 38.727 88.664 38.9936 88.744C39.3563 88.8507 39.6523 88.9573 39.8816 89.064C40.111 89.1707 40.3083 89.3307 40.4736 89.544C40.639 89.7573 40.7216 90.0373 40.7216 90.384C40.7216 90.6827 40.6443 90.96 40.4896 91.216C40.335 91.472 40.1083 91.6773 39.8096 91.832C39.511 91.9813 39.1563 92.056 38.7456 92.056ZM42.8126 88.208C42.9566 88.0053 43.154 87.8373 43.4046 87.704C43.6606 87.5653 43.9513 87.496 44.2766 87.496C44.6553 87.496 44.9966 87.5893 45.3006 87.776C45.61 87.9627 45.8526 88.2293 46.0286 88.576C46.21 88.9173 46.3006 89.3147 46.3006 89.768C46.3006 90.2213 46.21 90.624 46.0286 90.976C45.8526 91.3227 45.61 91.592 45.3006 91.784C44.9966 91.976 44.6553 92.072 44.2766 92.072C43.9513 92.072 43.6633 92.0053 43.4126 91.872C43.1673 91.7387 42.9673 91.5707 42.8126 91.368V94.112H41.6926V87.568H42.8126V88.208ZM45.1566 89.768C45.1566 89.5013 45.1006 89.272 44.9886 89.08C44.882 88.8827 44.738 88.7333 44.5566 88.632C44.3806 88.5307 44.1886 88.48 43.9806 88.48C43.778 88.48 43.586 88.5333 43.4046 88.64C43.2286 88.7413 43.0846 88.8907 42.9726 89.088C42.866 89.2853 42.8126 89.5173 42.8126 89.784C42.8126 90.0507 42.866 90.2827 42.9726 90.48C43.0846 90.6773 43.2286 90.8293 43.4046 90.936C43.586 91.0373 43.778 91.088 43.9806 91.088C44.1886 91.088 44.3806 91.0347 44.5566 90.928C44.738 90.8213 44.882 90.6693 44.9886 90.472C45.1006 90.2747 45.1566 90.04 45.1566 89.768ZM46.8265 89.768C46.8265 89.32 46.9145 88.9227 47.0905 88.576C47.2718 88.2293 47.5145 87.9627 47.8185 87.776C48.1278 87.5893 48.4718 87.496 48.8505 87.496C49.1812 87.496 49.4692 87.5627 49.7145 87.696C49.9652 87.8293 50.1652 87.9973 50.3145 88.2V87.568H51.4425V92H50.3145V91.352C50.1705 91.56 49.9705 91.7333 49.7145 91.872C49.4638 92.0053 49.1732 92.072 48.8425 92.072C48.4692 92.072 48.1278 91.976 47.8185 91.784C47.5145 91.592 47.2718 91.3227 47.0905 90.976C46.9145 90.624 46.8265 90.2213 46.8265 89.768ZM50.3145 89.784C50.3145 89.512 50.2612 89.28 50.1545 89.088C50.0478 88.8907 49.9038 88.7413 49.7225 88.64C49.5412 88.5333 49.3465 88.48 49.1385 88.48C48.9305 88.48 48.7385 88.5307 48.5625 88.632C48.3865 88.7333 48.2425 88.8827 48.1305 89.08C48.0238 89.272 47.9705 89.5013 47.9705 89.768C47.9705 90.0347 48.0238 90.2693 48.1305 90.472C48.2425 90.6693 48.3865 90.8213 48.5625 90.928C48.7438 91.0347 48.9358 91.088 49.1385 91.088C49.3465 91.088 49.5412 91.0373 49.7225 90.936C49.9038 90.8293 50.0478 90.68 50.1545 90.488C50.2612 90.2907 50.3145 90.056 50.3145 89.784ZM52.2484 89.784C52.2484 89.3253 52.3417 88.9253 52.5284 88.584C52.715 88.2373 52.9737 87.9707 53.3044 87.784C53.635 87.592 54.0137 87.496 54.4404 87.496C54.9897 87.496 55.443 87.6347 55.8004 87.912C56.163 88.184 56.4057 88.568 56.5284 89.064H55.3204C55.2564 88.872 55.147 88.7227 54.9924 88.616C54.843 88.504 54.6564 88.448 54.4324 88.448C54.1124 88.448 53.859 88.5653 53.6724 88.8C53.4857 89.0293 53.3924 89.3573 53.3924 89.784C53.3924 90.2053 53.4857 90.5333 53.6724 90.768C53.859 90.9973 54.1124 91.112 54.4324 91.112C54.8857 91.112 55.1817 90.9093 55.3204 90.504H56.5284C56.4057 90.984 56.163 91.3653 55.8004 91.648C55.4377 91.9307 54.9844 92.072 54.4404 92.072C54.0137 92.072 53.635 91.9787 53.3044 91.792C52.9737 91.6 52.715 91.3333 52.5284 90.992C52.3417 90.6453 52.2484 90.2427 52.2484 89.784ZM61.4689 89.688C61.4689 89.848 61.4582 89.992 61.4369 90.12H58.1969C58.2235 90.44 58.3355 90.6907 58.5329 90.872C58.7302 91.0533 58.9729 91.144 59.2609 91.144C59.6769 91.144 59.9729 90.9653 60.1489 90.608H61.3569C61.2289 91.0347 60.9835 91.3867 60.6209 91.664C60.2582 91.936 59.8129 92.072 59.2849 92.072C58.8582 92.072 58.4742 91.9787 58.1329 91.792C57.7969 91.6 57.5329 91.3307 57.3409 90.984C57.1542 90.6373 57.0609 90.2373 57.0609 89.784C57.0609 89.3253 57.1542 88.9227 57.3409 88.576C57.5275 88.2293 57.7889 87.9627 58.1249 87.776C58.4609 87.5893 58.8475 87.496 59.2849 87.496C59.7062 87.496 60.0822 87.5867 60.4129 87.768C60.7489 87.9493 61.0075 88.208 61.1889 88.544C61.3755 88.8747 61.4689 89.256 61.4689 89.688ZM60.3089 89.368C60.3035 89.08 60.1995 88.8507 59.9969 88.68C59.7942 88.504 59.5462 88.416 59.2529 88.416C58.9755 88.416 58.7409 88.5013 58.5489 88.672C58.3622 88.8373 58.2475 89.0693 58.2049 89.368H60.3089Z" fill="#003754"/>
<path d="M15.44 120.096C15.312 119.861 15.136 119.683 14.912 119.56C14.688 119.437 14.4267 119.376 14.128 119.376C13.7973 119.376 13.504 119.451 13.248 119.6C12.992 119.749 12.792 119.963 12.648 120.24C12.504 120.517 12.432 120.837 12.432 121.2C12.432 121.573 12.504 121.899 12.648 122.176C12.7973 122.453 13.0027 122.667 13.264 122.816C13.5253 122.965 13.8293 123.04 14.176 123.04C14.6027 123.04 14.952 122.928 15.224 122.704C15.496 122.475 15.6747 122.157 15.76 121.752H13.84V120.896H16.864V121.872C16.7893 122.261 16.6293 122.621 16.384 122.952C16.1387 123.283 15.8213 123.549 15.432 123.752C15.048 123.949 14.616 124.048 14.136 124.048C13.5973 124.048 13.1093 123.928 12.672 123.688C12.24 123.443 11.8987 123.104 11.648 122.672C11.4027 122.24 11.28 121.749 11.28 121.2C11.28 120.651 11.4027 120.16 11.648 119.728C11.8987 119.291 12.24 118.952 12.672 118.712C13.1093 118.467 13.5947 118.344 14.128 118.344C14.7573 118.344 15.304 118.499 15.768 118.808C16.232 119.112 16.552 119.541 16.728 120.096H15.44ZM21.9326 119.568L19.1886 126.096H17.9966L18.9566 123.888L17.1806 119.568H18.4366L19.5806 122.664L20.7406 119.568H21.9326ZM28.0404 119.504C28.5844 119.504 29.0217 119.672 29.3524 120.008C29.6884 120.339 29.8564 120.803 29.8564 121.4V124H28.7364V121.552C28.7364 121.205 28.6484 120.941 28.4724 120.76C28.2964 120.573 28.0564 120.48 27.7524 120.48C27.4484 120.48 27.2057 120.573 27.0244 120.76C26.8484 120.941 26.7604 121.205 26.7604 121.552V124H25.6404V121.552C25.6404 121.205 25.5524 120.941 25.3764 120.76C25.2004 120.573 24.9604 120.48 24.6564 120.48C24.347 120.48 24.1017 120.573 23.9204 120.76C23.7444 120.941 23.6564 121.205 23.6564 121.552V124H22.5364V119.568H23.6564V120.104C23.8004 119.917 23.9844 119.771 24.2084 119.664C24.4377 119.557 24.6884 119.504 24.9604 119.504C25.307 119.504 25.6164 119.579 25.8884 119.728C26.1604 119.872 26.371 120.08 26.5204 120.352C26.6644 120.096 26.8724 119.891 27.1444 119.736C27.4217 119.581 27.7204 119.504 28.0404 119.504Z" fill="#003754"/>
<path d="M15.712 54.984L14.864 53.968C14.6293 54.0267 14.3893 54.056 14.144 54.056C13.6213 54.056 13.1413 53.9333 12.704 53.688C12.2667 53.4427 11.92 53.104 11.664 52.672C11.408 52.2347 11.28 51.7413 11.28 51.192C11.28 50.648 11.408 50.16 11.664 49.728C11.92 49.2907 12.2667 48.9493 12.704 48.704C13.1413 48.4587 13.6213 48.336 14.144 48.336C14.672 48.336 15.152 48.4587 15.584 48.704C16.0213 48.9493 16.3653 49.2907 16.616 49.728C16.872 50.16 17 50.648 17 51.192C17 51.688 16.8933 52.1413 16.68 52.552C16.472 52.9573 16.1867 53.288 15.824 53.544L17.104 54.984H15.712ZM12.432 51.192C12.432 51.5653 12.504 51.8933 12.648 52.176C12.792 52.4587 12.992 52.6773 13.248 52.832C13.5093 52.9813 13.808 53.056 14.144 53.056C14.48 53.056 14.776 52.9813 15.032 52.832C15.288 52.6773 15.488 52.4587 15.632 52.176C15.776 51.8933 15.848 51.5653 15.848 51.192C15.848 50.8187 15.776 50.4933 15.632 50.216C15.488 49.9333 15.288 49.7173 15.032 49.568C14.776 49.4187 14.48 49.344 14.144 49.344C13.808 49.344 13.5093 49.4187 13.248 49.568C12.992 49.7173 12.792 49.9333 12.648 50.216C12.504 50.4933 12.432 50.8187 12.432 51.192ZM22.0329 49.568V54H20.9049V53.44C20.7609 53.632 20.5715 53.784 20.3369 53.896C20.1075 54.0027 19.8569 54.056 19.5849 54.056C19.2382 54.056 18.9315 53.984 18.6649 53.84C18.3982 53.6907 18.1875 53.4747 18.0329 53.192C17.8835 52.904 17.8089 52.5627 17.8089 52.168V49.568H18.9289V52.008C18.9289 52.36 19.0169 52.632 19.1929 52.824C19.3689 53.0107 19.6089 53.104 19.9129 53.104C20.2222 53.104 20.4649 53.0107 20.6409 52.824C20.8169 52.632 20.9049 52.36 20.9049 52.008V49.568H22.0329ZM23.7059 49.04C23.5086 49.04 23.3433 48.9787 23.2099 48.856C23.0819 48.728 23.0179 48.5707 23.0179 48.384C23.0179 48.1973 23.0819 48.0427 23.2099 47.92C23.3433 47.792 23.5086 47.728 23.7059 47.728C23.9033 47.728 24.0659 47.792 24.1939 47.92C24.3273 48.0427 24.3939 48.1973 24.3939 48.384C24.3939 48.5707 24.3273 48.728 24.1939 48.856C24.0659 48.9787 23.9033 49.04 23.7059 49.04ZM24.2579 49.568V54H23.1379V49.568H24.2579ZM29.4845 51.688C29.4845 51.848 29.4738 51.992 29.4525 52.12H26.2125C26.2392 52.44 26.3512 52.6907 26.5485 52.872C26.7458 53.0533 26.9885 53.144 27.2765 53.144C27.6925 53.144 27.9885 52.9653 28.1645 52.608H29.3725C29.2445 53.0347 28.9992 53.3867 28.6365 53.664C28.2738 53.936 27.8285 54.072 27.3005 54.072C26.8738 54.072 26.4898 53.9787 26.1485 53.792C25.8125 53.6 25.5485 53.3307 25.3565 52.984C25.1698 52.6373 25.0765 52.2373 25.0765 51.784C25.0765 51.3253 25.1698 50.9227 25.3565 50.576C25.5432 50.2293 25.8045 49.9627 26.1405 49.776C26.4765 49.5893 26.8632 49.496 27.3005 49.496C27.7218 49.496 28.0978 49.5867 28.4285 49.768C28.7645 49.9493 29.0232 50.208 29.2045 50.544C29.3912 50.8747 29.4845 51.256 29.4845 51.688ZM28.3245 51.368C28.3192 51.08 28.2152 50.8507 28.0125 50.68C27.8098 50.504 27.5618 50.416 27.2685 50.416C26.9912 50.416 26.7565 50.5013 26.5645 50.672C26.3778 50.8373 26.2632 51.0693 26.2205 51.368H28.3245ZM31.606 50.488V52.632C31.606 52.7813 31.6407 52.8907 31.71 52.96C31.7847 53.024 31.9073 53.056 32.078 53.056H32.598V54H31.894C30.95 54 30.478 53.5413 30.478 52.624V50.488H29.95V49.568H30.478V48.472H31.606V49.568H32.598V50.488H31.606ZM37.2378 54.056C36.8485 54.056 36.4965 53.9893 36.1818 53.856C35.8725 53.7227 35.6271 53.5307 35.4458 53.28C35.2645 53.0293 35.1711 52.7333 35.1658 52.392H36.3658C36.3818 52.6213 36.4618 52.8027 36.6058 52.936C36.7551 53.0693 36.9578 53.136 37.2138 53.136C37.4751 53.136 37.6805 53.0747 37.8298 52.952C37.9791 52.824 38.0538 52.6587 38.0538 52.456C38.0538 52.2907 38.0031 52.1547 37.9018 52.048C37.8005 51.9413 37.6725 51.8587 37.5178 51.8C37.3685 51.736 37.1605 51.6667 36.8938 51.592C36.5311 51.4853 36.2351 51.3813 36.0058 51.28C35.7818 51.1733 35.5871 51.016 35.4218 50.808C35.2618 50.5947 35.1818 50.312 35.1818 49.96C35.1818 49.6293 35.2645 49.3413 35.4298 49.096C35.5951 48.8507 35.8271 48.664 36.1258 48.536C36.4245 48.4027 36.7658 48.336 37.1498 48.336C37.7258 48.336 38.1925 48.4773 38.5498 48.76C38.9125 49.0373 39.1125 49.4267 39.1498 49.928H37.9178C37.9071 49.736 37.8245 49.5787 37.6698 49.456C37.5205 49.328 37.3205 49.264 37.0698 49.264C36.8511 49.264 36.6751 49.32 36.5418 49.432C36.4138 49.544 36.3498 49.7067 36.3498 49.92C36.3498 50.0693 36.3978 50.1947 36.4938 50.296C36.5951 50.392 36.7178 50.472 36.8618 50.536C37.0111 50.5947 37.2191 50.664 37.4858 50.744C37.8485 50.8507 38.1445 50.9573 38.3738 51.064C38.6031 51.1707 38.8005 51.3307 38.9658 51.544C39.1311 51.7573 39.2138 52.0373 39.2138 52.384C39.2138 52.6827 39.1365 52.96 38.9818 53.216C38.8271 53.472 38.6005 53.6773 38.3018 53.832C38.0031 53.9813 37.6485 54.056 37.2378 54.056ZM41.3048 50.208C41.4488 50.0053 41.6461 49.8373 41.8968 49.704C42.1528 49.5653 42.4435 49.496 42.7688 49.496C43.1475 49.496 43.4888 49.5893 43.7928 49.776C44.1021 49.9627 44.3448 50.2293 44.5208 50.576C44.7021 50.9173 44.7928 51.3147 44.7928 51.768C44.7928 52.2213 44.7021 52.624 44.5208 52.976C44.3448 53.3227 44.1021 53.592 43.7928 53.784C43.4888 53.976 43.1475 54.072 42.7688 54.072C42.4435 54.072 42.1555 54.0053 41.9048 53.872C41.6595 53.7387 41.4595 53.5707 41.3048 53.368V56.112H40.1848V49.568H41.3048V50.208ZM43.6488 51.768C43.6488 51.5013 43.5928 51.272 43.4808 51.08C43.3741 50.8827 43.2301 50.7333 43.0488 50.632C42.8728 50.5307 42.6808 50.48 42.4728 50.48C42.2701 50.48 42.0781 50.5333 41.8968 50.64C41.7208 50.7413 41.5768 50.8907 41.4648 51.088C41.3581 51.2853 41.3048 51.5173 41.3048 51.784C41.3048 52.0507 41.3581 52.2827 41.4648 52.48C41.5768 52.6773 41.7208 52.8293 41.8968 52.936C42.0781 53.0373 42.2701 53.088 42.4728 53.088C42.6808 53.088 42.8728 53.0347 43.0488 52.928C43.2301 52.8213 43.3741 52.6693 43.4808 52.472C43.5928 52.2747 43.6488 52.04 43.6488 51.768ZM45.3187 51.768C45.3187 51.32 45.4067 50.9227 45.5827 50.576C45.764 50.2293 46.0067 49.9627 46.3107 49.776C46.62 49.5893 46.964 49.496 47.3427 49.496C47.6734 49.496 47.9614 49.5627 48.2067 49.696C48.4574 49.8293 48.6574 49.9973 48.8067 50.2V49.568H49.9347V54H48.8067V53.352C48.6627 53.56 48.4627 53.7333 48.2067 53.872C47.956 54.0053 47.6654 54.072 47.3347 54.072C46.9614 54.072 46.62 53.976 46.3107 53.784C46.0067 53.592 45.764 53.3227 45.5827 52.976C45.4067 52.624 45.3187 52.2213 45.3187 51.768ZM48.8067 51.784C48.8067 51.512 48.7534 51.28 48.6467 51.088C48.54 50.8907 48.396 50.7413 48.2147 50.64C48.0334 50.5333 47.8387 50.48 47.6307 50.48C47.4227 50.48 47.2307 50.5307 47.0547 50.632C46.8787 50.7333 46.7347 50.8827 46.6227 51.08C46.516 51.272 46.4627 51.5013 46.4627 51.768C46.4627 52.0347 46.516 52.2693 46.6227 52.472C46.7347 52.6693 46.8787 52.8213 47.0547 52.928C47.236 53.0347 47.428 53.088 47.6307 53.088C47.8387 53.088 48.0334 53.0373 48.2147 52.936C48.396 52.8293 48.54 52.68 48.6467 52.488C48.7534 52.2907 48.8067 52.056 48.8067 51.784ZM50.7406 51.784C50.7406 51.3253 50.8339 50.9253 51.0206 50.584C51.2072 50.2373 51.4659 49.9707 51.7966 49.784C52.1272 49.592 52.5059 49.496 52.9326 49.496C53.4819 49.496 53.9352 49.6347 54.2926 49.912C54.6552 50.184 54.8979 50.568 55.0206 51.064H53.8126C53.7486 50.872 53.6392 50.7227 53.4846 50.616C53.3352 50.504 53.1486 50.448 52.9246 50.448C52.6046 50.448 52.3512 50.5653 52.1646 50.8C51.9779 51.0293 51.8846 51.3573 51.8846 51.784C51.8846 52.2053 51.9779 52.5333 52.1646 52.768C52.3512 52.9973 52.6046 53.112 52.9246 53.112C53.3779 53.112 53.6739 52.9093 53.8126 52.504H55.0206C54.8979 52.984 54.6552 53.3653 54.2926 53.648C53.9299 53.9307 53.4766 54.072 52.9326 54.072C52.5059 54.072 52.1272 53.9787 51.7966 53.792C51.4659 53.6 51.2072 53.3333 51.0206 52.992C50.8339 52.6453 50.7406 52.2427 50.7406 51.784ZM59.9611 51.688C59.9611 51.848 59.9504 51.992 59.9291 52.12H56.6891C56.7157 52.44 56.8277 52.6907 57.0251 52.872C57.2224 53.0533 57.4651 53.144 57.7531 53.144C58.1691 53.144 58.4651 52.9653 58.6411 52.608H59.8491C59.7211 53.0347 59.4757 53.3867 59.1131 53.664C58.7504 53.936 58.3051 54.072 57.7771 54.072C57.3504 54.072 56.9664 53.9787 56.6251 53.792C56.2891 53.6 56.0251 53.3307 55.8331 52.984C55.6464 52.6373 55.5531 52.2373 55.5531 51.784C55.5531 51.3253 55.6464 50.9227 55.8331 50.576C56.0197 50.2293 56.2811 49.9627 56.6171 49.776C56.9531 49.5893 57.3397 49.496 57.7771 49.496C58.1984 49.496 58.5744 49.5867 58.9051 49.768C59.2411 49.9493 59.4997 50.208 59.6811 50.544C59.8677 50.8747 59.9611 51.256 59.9611 51.688ZM58.8011 51.368C58.7957 51.08 58.6917 50.8507 58.4891 50.68C58.2864 50.504 58.0384 50.416 57.7451 50.416C57.4677 50.416 57.2331 50.5013 57.0411 50.672C56.8544 50.8373 56.7397 51.0693 56.6971 51.368H58.8011Z" fill="#003754"/>
</svg>
